<svg id="Layer_1" data-name="Layer 1" xmlns="http://www.w3.org/2000/svg" xmlns:xlink="http://www.w3.org/1999/xlink" viewBox="0 0 70.98 73.91"><defs><style>.cls-1{fill:#344257;}.cls-2{clip-path:url(#clip-path);}.cls-3{fill:url(#linear-gradient);}.cls-4{fill:url(#linear-gradient-2);}.cls-5{fill:url(#linear-gradient-3);}.cls-6{fill:url(#linear-gradient-4);}.cls-7{fill:url(#linear-gradient-5);}</style><clipPath id="clip-path" transform="translate(-412.11 -151.68)"><polygon id="SVGID" class="cls-1" points="413.5 187.56 481.41 191.19 424.97 182.07 413.5 187.56"/></clipPath><linearGradient id="linear-gradient" x1="330.18" y1="109.23" x2="404.71" y2="109.23" gradientTransform="translate(-157.27 -309.2) rotate(43.69)" gradientUnits="userSpaceOnUse"><stop offset="0" stop-color="#548ca8"/><stop offset="0.5" stop-color="#6eb0d0"/><stop offset="1" stop-color="#85d1f5"/></linearGradient><linearGradient id="linear-gradient-2" x1="1152.53" y1="173.28" x2="1189.7" y2="167.86" gradientTransform="matrix(-0.4, -0.85, -1.2, -0.19, 711.87, 1064.14)" gradientUnits="userSpaceOnUse"><stop offset="0" stop-color="#85d1f5"/><stop offset="0.44" stop-color="#71b5d6"/><stop offset="1" stop-color="#5a95b1"/></linearGradient><linearGradient id="linear-gradient-3" x1="-88.47" y1="162.12" x2="-140.37" y2="140.52" gradientTransform="matrix(0.28, 0.96, -0.97, -0.24, 214.31, 184.53)" gradientUnits="userSpaceOnUse"><stop offset="0" stop-color="#344257"/><stop offset="0.37" stop-color="#42637b"/><stop offset="0.78" stop-color="#4f819c"/><stop offset="1" stop-color="#548ca8"/></linearGradient><linearGradient id="linear-gradient-4" x1="347.79" y1="109.23" x2="404.71" y2="109.23" xlink:href="#linear-gradient"/><linearGradient id="linear-gradient-5" x1="357.6" y1="112.03" x2="404.71" y2="112.03" gradientTransform="translate(-157.27 -309.2) rotate(43.69)" xlink:href="#linear-gradient-2"/></defs><polygon id="SVGID-2" data-name="SVGID" class="cls-1" points="1.39 35.89 69.29 39.51 12.86 30.39 1.39 35.89"/><g class="cls-2"><rect class="cls-1" x="425.31" y="163.57" width="44.29" height="51.6" transform="translate(-410.69 230.41) rotate(-46.31)"/><path class="cls-1" d="M417.26,183.22,432.72,167l-1.25-1.2a58.43,58.43,0,0,1,23.43-2.9l-1.27,1.33,28.18,26.92-31,32.43-37.72-36Z" transform="translate(-412.11 -151.68)"/><path class="cls-1" d="M417.26,183.22l15.35-16.07-.91-.86A58,58,0,0,1,455,163.41l-1.06,1.11,27.91,26.66-31,32.43-37.72-36Z" transform="translate(-412.11 -151.68)"/><path class="cls-1" d="M417.26,183.22l15.23-15.94-.55-.53A57.43,57.43,0,0,1,455,163.9l-.84.88,27.63,26.4-31,32.43-37.72-36Z" transform="translate(-412.11 -151.68)"/><path class="cls-1" d="M417.26,183.22l15.11-15.82-.19-.18a56.88,56.88,0,0,1,22.89-2.84l-.62.66,27.36,26.14-31,32.43-37.72-36Z" transform="translate(-412.11 -151.68)"/><path class="cls-1" d="M417.26,183.22l7.76-8.13,5.48-5.74-.71-.68c.86-.35,1.74-.68,2.62-1a56.61,56.61,0,0,1,22.72-2.81l-.41.43,27.09,25.88-31,32.43-37.72-36Z" transform="translate(-412.11 -151.68)"/><path class="cls-1" d="M417.26,183.22l7.7-8.06,3.66-3.84-1.11-1.06a49.12,49.12,0,0,1,5.14-2.12,56.25,56.25,0,0,1,22.54-2.79l-.2.21,26.82,25.62-31,32.43-37.72-36Z" transform="translate(-412.11 -151.68)"/><path class="cls-1" d="M417.26,183.22l7.64-8,3.63-3.8-.75-.72a50.73,50.73,0,0,1,5.11-2.1,55.71,55.71,0,0,1,22.36-2.76c1,.07,1.95.16,2.92.28l-1.23,1.3,24.87,23.76-31,32.43-37.72-36Z" transform="translate(-412.11 -151.68)"/><path class="cls-1" d="M417.26,183.22l7.58-7.94,3.6-3.77-.38-.36a47.56,47.56,0,0,1,5.06-2.08,55.25,55.25,0,0,1,22.19-2.75c1,.07,1.93.16,2.9.28l-1,1.06,24.62,23.52-31,32.43-37.72-36Z" transform="translate(-412.11 -151.68)"/><path class="cls-1" d="M417.26,183.22l7.52-7.87-1.18-1.13a46.89,46.89,0,0,1,9.76-4.69,54.69,54.69,0,0,1,22-2.72q1.44.1,2.88.27l-.79.83,24.36,23.27-31,32.43-37.72-36Z" transform="translate(-412.11 -151.68)"/><path class="cls-1" d="M417.26,183.22l7.45-7.81-.8-.76A46.24,46.24,0,0,1,433.6,170a54.51,54.51,0,0,1,21.82-2.7c.95.07,1.9.16,2.86.28l-.57.59,24.1,23-31,32.43-37.72-36Z" transform="translate(-412.11 -151.68)"/><path class="cls-1" d="M415.89,181.91c10.13-10.61,24.52-15.23,39.59-14.14.94.07,1.88.16,2.83.28l-.34.35,23.84,22.78-31,32.43-37.72-36,4.16-4.35Z" transform="translate(-412.11 -151.68)"/><path class="cls-1" d="M416.27,182.28c10.05-10.52,24.32-15.11,39.27-14,1.86.14,3.74.36,5.62.67l-1.26,1.32,21.91,20.93-31,32.43-37.72-36,4.16-4.35Z" transform="translate(-412.11 -151.68)"/><path class="cls-1" d="M416.66,182.65c10-10.44,24.11-15,38.93-13.91q2.79.21,5.59.67l-1,1.08,21.66,20.69-31,32.43-37.72-36,4.16-4.35Z" transform="translate(-412.11 -151.68)"/><path class="cls-1" d="M417,183c9.88-10.34,23.92-14.85,38.61-13.78q2.76.2,5.54.66l-.8.83,21.42,20.46-31,32.43-37.41-35.74-1.3,1.35c.48-.73,1-1.45,1.5-2.15A43.61,43.61,0,0,1,417,183Z" transform="translate(-412.11 -151.68)"/><path class="cls-1" d="M417.42,183.38c9.81-10.26,23.72-14.73,38.29-13.67,1.82.14,3.65.35,5.49.66l-.56.58,21.17,20.23-31,32.43-37-35.38-1.25,1.3c.47-.72,1-1.43,1.49-2.13A44.24,44.24,0,0,1,417.42,183.38Z" transform="translate(-412.11 -151.68)"/><path class="cls-1" d="M417.81,183.75c9.72-10.17,23.51-14.61,38-13.55,1.8.13,3.62.35,5.44.65l-.33.34,20.93,20-31,32.43-36.65-35-1.2,1.26c.46-.72,1-1.42,1.47-2.12A42,42,0,0,1,417.81,183.75Z" transform="translate(-412.11 -151.68)"/><path class="cls-1" d="M418.19,184.12c9.64-10.09,23.31-14.48,37.63-13.44q2.69.19,5.4.65l-.09.09,20.68,19.76-31,32.43L414.55,189l-1.16,1.2c.47-.71,1-1.41,1.47-2.09A42.71,42.71,0,0,1,418.19,184.12Z" transform="translate(-412.11 -151.68)"/><path class="cls-1" d="M418.58,184.48c9.55-10,23.1-14.35,37.3-13.31,1.78.13,3.56.34,5.35.64.89.15,1.79.31,2.68.51l-.88.92,18.78,17.94-31,32.43-35.89-34.29-1.11,1.16c.46-.71.94-1.4,1.45-2.08A42.12,42.12,0,0,1,418.58,184.48Z" transform="translate(-412.11 -151.68)"/><path class="cls-1" d="M419,184.85c9.47-9.91,22.91-14.23,37-13.2,1.76.13,3.53.34,5.3.64.89.14,1.77.31,2.66.5l-.64.67,18.55,17.72-31,32.43-35.51-33.93-1.07,1.11c.46-.69.94-1.38,1.44-2.06A44.3,44.3,0,0,1,419,184.85Z" transform="translate(-412.11 -151.68)"/><path class="cls-1" d="M419.35,185.22c9.38-9.82,22.7-14.1,36.65-13.08a57.91,57.91,0,0,1,10.52,1.75l-1.34,1.4,16.63,15.89-31,32.43-35.13-33.56-1,1.06c.45-.69.93-1.37,1.43-2A40.62,40.62,0,0,1,419.35,185.22Z" transform="translate(-412.11 -151.68)"/><path class="cls-1" d="M419.73,185.59c9.3-9.74,22.5-14,36.32-13a57.76,57.76,0,0,1,10.44,1.74l-1.09,1.14,16.41,15.68-31,32.43-34.75-33.2-1,1c.45-.68.92-1.36,1.41-2A41.34,41.34,0,0,1,419.73,185.59Z" transform="translate(-412.11 -151.68)"/><path class="cls-1" d="M420.12,186c9.21-9.64,22.29-13.84,36-12.85a58.43,58.43,0,0,1,10.34,1.72l-.84.88,16.2,15.48-31,32.43-34.37-32.84-.93,1q.68-1,1.41-2A40.4,40.4,0,0,1,420.12,186Z" transform="translate(-412.11 -151.68)"/><path class="cls-1" d="M420.5,186.32c9.13-9.55,22.1-13.72,35.67-12.73a58.47,58.47,0,0,1,10.25,1.7l-.59.62,16,15.27-31,32.43-34-32.47-.88.91c.44-.67.91-1.33,1.39-2A41.26,41.26,0,0,1,420.5,186.32Z" transform="translate(-412.11 -151.68)"/><path class="cls-1" d="M420.89,186.69c9.05-9.47,21.89-13.6,35.34-12.62a57.36,57.36,0,0,1,10.15,1.69l-.34.36,15.77,15.06-31,32.43L417.21,191.5l-.83.87c.44-.67.89-1.32,1.37-2A39.25,39.25,0,0,1,420.89,186.69Z" transform="translate(-412.11 -151.68)"/><path class="cls-1" d="M421.27,187.06c9-9.38,21.69-13.47,35-12.5a56.08,56.08,0,0,1,10,1.67l-.08.09,15.55,14.86-31,32.43-33.23-31.75-.79.82c.44-.66.89-1.31,1.37-2A39.61,39.61,0,0,1,421.27,187.06Z" transform="translate(-412.11 -151.68)"/><path class="cls-1" d="M421.66,187.43c8.88-9.3,21.48-13.35,34.68-12.39a56.24,56.24,0,0,1,10,1.66c.83.22,1.66.45,2.49.71l-.67.7,13.68,13.07-31,32.43L418,192.23l-.74.77c.43-.66.88-1.3,1.35-1.93A37.77,37.77,0,0,1,421.66,187.43Z" transform="translate(-412.11 -151.68)"/><path class="cls-1" d="M422,187.79c8.8-9.2,21.28-13.22,34.36-12.26a54.09,54.09,0,0,1,9.87,1.64q2.48.65,4.93,1.51L470,179.92l11.79,11.26-31,32.43-32.47-31-.69.73c.42-.65.87-1.29,1.33-1.92A39.9,39.9,0,0,1,422,187.79Z" transform="translate(-412.11 -151.68)"/><path class="cls-1" d="M422.43,188.16c8.71-9.12,21.08-13.09,34-12.15a54.76,54.76,0,0,1,9.77,1.63c1.64.42,3.26.92,4.88,1.5l-.91,1,11.61,11.09-31,32.43L418.73,193l-.65.68c.43-.64.87-1.28,1.33-1.9A37.53,37.53,0,0,1,422.43,188.16Z" transform="translate(-412.11 -151.68)"/><path class="cls-1" d="M422.81,188.53c8.63-9,20.88-13,33.71-12a53.89,53.89,0,0,1,9.68,1.61c1.61.42,3.23.91,4.83,1.48l-.64.68,11.42,10.91-31,32.43-31.71-30.29-.6.63c.42-.64.86-1.27,1.31-1.88A38.36,38.36,0,0,1,422.81,188.53Z" transform="translate(-412.11 -151.68)"/><path class="cls-1" d="M423.2,188.9c8.54-9,20.67-12.85,33.37-11.92a52.76,52.76,0,0,1,9.59,1.6q2.4.61,4.79,1.47l-.38.39,11.24,10.74-31,32.43-31.33-29.93-.55.58c.41-.63.84-1.25,1.3-1.86A34.91,34.91,0,0,1,423.2,188.9Z" transform="translate(-412.11 -151.68)"/><path class="cls-1" d="M423.58,189.26c8.46-8.85,20.47-12.71,33.05-11.8a53.27,53.27,0,0,1,9.49,1.58c1.59.42,3.17.9,4.74,1.46l-.11.12,11.06,10.56-31,32.43L419.87,194l-.51.54c.41-.63.84-1.24,1.29-1.85A38.16,38.16,0,0,1,423.58,189.26Z" transform="translate(-412.11 -151.68)"/><path class="cls-1" d="M424,189.63c8.37-8.77,20.26-12.59,32.72-11.68a55,55,0,0,1,18.73,4.88L474.3,184l7.51,7.17-31,32.43-30.57-29.2-.46.48c.41-.62.83-1.23,1.27-1.82A36.27,36.27,0,0,1,424,189.63Z" transform="translate(-412.11 -151.68)"/><path class="cls-1" d="M424.35,190c8.29-8.68,20.07-12.47,32.4-11.57a54.44,54.44,0,0,1,18.54,4.84l-.84.88,7.36,7-31,32.43-30.19-28.84-.41.44c.4-.62.82-1.22,1.26-1.81A36.87,36.87,0,0,1,424.35,190Z" transform="translate(-412.11 -151.68)"/><path class="cls-1" d="M424.74,190.37c8.21-8.6,19.86-12.34,32.06-11.45a53.93,53.93,0,0,1,18.36,4.78l-.56.59,7.21,6.89-31,32.43L421,195.13l-.37.39c.4-.61.82-1.2,1.25-1.79A35.93,35.93,0,0,1,424.74,190.37Z" transform="translate(-412.11 -151.68)"/><path class="cls-1" d="M425.12,190.73c8.13-8.5,19.66-12.21,31.74-11.33A53.36,53.36,0,0,1,475,184.14l-.28.29,7.06,6.75-31,32.43L421.39,195.5l-.32.34c.39-.6.8-1.19,1.24-1.77A36.8,36.8,0,0,1,425.12,190.73Z" transform="translate(-412.11 -151.68)"/><path class="cls-1" d="M425.51,191.1c8-8.41,19.45-12.08,31.41-11.21a52.69,52.69,0,0,1,18,4.68h0l6.91,6.6-31,32.43-29.05-27.75-.27.29c.39-.59.79-1.18,1.22-1.75A34.56,34.56,0,0,1,425.51,191.1Z" transform="translate(-412.11 -151.68)"/><path class="cls-1" d="M425.89,191.47c8-8.33,19.26-12,31.09-11.1A52.35,52.35,0,0,1,474.77,185c1.46.66,2.91,1.39,4.33,2.19l-.69.73,3.4,3.25-31,32.43-28.67-27.39-.23.25c.39-.59.79-1.17,1.21-1.74A36.89,36.89,0,0,1,425.89,191.47Z" transform="translate(-412.11 -151.68)"/><path class="cls-1" d="M426.28,191.84c7.87-8.24,19.05-11.84,30.75-11a51.46,51.46,0,0,1,17.61,4.59,57.67,57.67,0,0,1,8.46,4.74l-1.29,1-31,32.43-28.29-27-.18.19q.57-.87,1.2-1.71A33.1,33.1,0,0,1,426.28,191.84Z" transform="translate(-412.11 -151.68)"/><path class="cls-1" d="M426.66,192.21c7.79-8.16,18.85-11.71,30.43-10.87a51.1,51.1,0,0,1,17.42,4.54,57.45,57.45,0,0,1,8.37,4.7l-1.07.6-31,32.43L422.92,197l-.14.15c.37-.58.77-1.14,1.18-1.7A34,34,0,0,1,426.66,192.21Z" transform="translate(-412.11 -151.68)"/><path class="cls-1" d="M427.05,192.57c7.7-8.06,18.64-11.58,30.1-10.74a50.39,50.39,0,0,1,17.23,4.49,56.15,56.15,0,0,1,8.28,4.64l-.85.22-31,32.43-27.52-26.3-.1.1c.38-.57.77-1.13,1.18-1.68A32.85,32.85,0,0,1,427.05,192.57Z" transform="translate(-412.11 -151.68)"/><path class="cls-1" d="M427.43,192.94c7.62-8,18.44-11.46,29.78-10.63a50,50,0,0,1,17,4.44,55.92,55.92,0,0,1,8.19,4.6l-.63-.17-31,32.43-27.14-25.93-.05,0c.37-.57.75-1.12,1.16-1.66A33.89,33.89,0,0,1,427.43,192.94Z" transform="translate(-412.11 -151.68)"/><path class="cls-1" d="M427.82,193.31c7.53-7.89,18.24-11.33,29.44-10.52a49.62,49.62,0,0,1,16.86,4.4,54.63,54.63,0,0,1,8.1,4.54l-.49-.46-30.91,32.34-26.46-25.28L423,199.74A32.53,32.53,0,0,1,427.82,193.31Z" transform="translate(-412.11 -151.68)"/><path class="cls-1" d="M428.2,193.68c7.46-7.81,18-11.21,29.12-10.4A49.13,49.13,0,0,1,474,187.62a55.76,55.76,0,0,1,8,4.5l-.57-.54-30.61,32-26.08-24.92L423.46,200A32.57,32.57,0,0,1,428.2,193.68Z" transform="translate(-412.11 -151.68)"/><path class="cls-1" d="M428.59,194c7.37-7.71,17.83-11.08,28.79-10.28a48.5,48.5,0,0,1,16.49,4.3,53.6,53.6,0,0,1,7.91,4.45l-.65-.62-30.31,31.72-25.7-24.56-1.23,1.28A32.22,32.22,0,0,1,428.59,194Z" transform="translate(-412.11 -151.68)"/><path class="cls-1" d="M429,194.41c7.29-7.63,17.63-10.95,28.47-10.16a47.9,47.9,0,0,1,16.3,4.25,53.22,53.22,0,0,1,7.82,4.39l-.72-.69-30,31.41-25.33-24.2-1.16,1.22A31.87,31.87,0,0,1,429,194.41Z" transform="translate(-412.11 -151.68)"/><path class="cls-1" d="M429.35,194.78c7.21-7.54,17.44-10.83,28.15-10.05a47.42,47.42,0,0,1,16.11,4.2,52.08,52.08,0,0,1,7.73,4.35l-.8-.77-29.72,31.1-24.95-23.84-1.1,1.15A31.75,31.75,0,0,1,429.35,194.78Z" transform="translate(-412.11 -151.68)"/><path class="cls-1" d="M429.74,195.15c7.12-7.46,17.23-10.71,27.81-9.93a46.54,46.54,0,0,1,15.93,4.15,51.7,51.7,0,0,1,7.64,4.29l-.88-.84-29.42,30.79-24.57-23.48-1,1.09A31,31,0,0,1,429.74,195.15Z" transform="translate(-412.11 -151.68)"/><path class="cls-1" d="M430.12,195.51c7-7.36,17-10.57,27.49-9.81a46.41,46.41,0,0,1,15.74,4.1,51.47,51.47,0,0,1,7.55,4.25l-1-.92-29.12,30.48-24.2-23.12-1,1A31.06,31.06,0,0,1,430.12,195.51Z" transform="translate(-412.11 -151.68)"/><path class="cls-1" d="M430.51,195.88c6.95-7.28,16.82-10.45,27.16-9.69a45.53,45.53,0,0,1,15.55,4.05,51.63,51.63,0,0,1,7.46,4.19l-1-1-28.83,30.17L427,200.85l-.92,1A30.75,30.75,0,0,1,430.51,195.88Z" transform="translate(-412.11 -151.68)"/><path class="cls-1" d="M430.89,196.25c6.87-7.19,16.62-10.32,26.84-9.58a45.17,45.17,0,0,1,15.36,4,51,51,0,0,1,7.37,4.15l-1.11-1.07-28.53,29.86-23.44-22.4-.86.9A30.39,30.39,0,0,1,430.89,196.25Z" transform="translate(-412.11 -151.68)"/><path class="cls-1" d="M431.28,196.62c6.78-7.1,16.42-10.2,26.5-9.47a44.76,44.76,0,0,1,15.18,4,49.69,49.69,0,0,1,7.28,4.09l-1.19-1.13-28.23,29.54-23.07-22-.79.84A29,29,0,0,1,431.28,196.62Z" transform="translate(-412.11 -151.68)"/><path class="cls-1" d="M431.66,197c6.71-7,16.22-10.07,26.18-9.34a43.88,43.88,0,0,1,15,3.91,48.47,48.47,0,0,1,7.19,4l-1.26-1.21-27.94,29.23-22.69-21.68-.73.77A29.94,29.94,0,0,1,431.66,197Z" transform="translate(-412.11 -151.68)"/><path class="cls-1" d="M432.05,197.35c6.62-6.92,16-9.94,25.85-9.23A43.46,43.46,0,0,1,472.7,192a48.17,48.17,0,0,1,7.1,4l-1.34-1.28-27.64,28.92-22.31-21.32-.67.71A28.53,28.53,0,0,1,432.05,197.35Z" transform="translate(-412.11 -151.68)"/><path class="cls-1" d="M432.43,197.72c6.54-6.84,15.81-9.82,25.53-9.11a42.87,42.87,0,0,1,14.61,3.81,47.86,47.86,0,0,1,7,3.94L478.16,195l-27.34,28.61-21.93-21-.62.63A29.28,29.28,0,0,1,432.43,197.72Z" transform="translate(-412.11 -151.68)"/><path class="cls-1" d="M432.82,198.09c6.45-6.75,15.6-9.7,25.19-9a42.44,42.44,0,0,1,14.43,3.76c1.18.54,2.35,1.13,3.51,1.78.57.33,1.15.66,1.72,1l-.07-.07-26.78,28L429.26,203l-.55.57A28.56,28.56,0,0,1,432.82,198.09Z" transform="translate(-412.11 -151.68)"/><path class="cls-1" d="M433.2,198.46c6.37-6.67,15.41-9.57,24.87-8.88a41.85,41.85,0,0,1,14.24,3.71c1.17.53,2.32,1.11,3.46,1.75.57.32,1.14.66,1.7,1l-.16-.15-26.49,27.72-21.18-20.23-.49.51A27.51,27.51,0,0,1,433.2,198.46Z" transform="translate(-412.11 -151.68)"/><path class="cls-1" d="M433.59,198.82c6.28-6.57,15.2-9.44,24.54-8.76a41.43,41.43,0,0,1,14.05,3.66c1.15.53,2.29,1.1,3.42,1.74.56.31,1.12.64,1.67,1l-.25-.24-26.2,27.41L430,203.74l-.43.44A28.11,28.11,0,0,1,433.59,198.82Z" transform="translate(-412.11 -151.68)"/><path class="cls-1" d="M434,199.19c6.2-6.49,15-9.32,24.22-8.64a40.55,40.55,0,0,1,13.86,3.61c1.14.52,2.26,1.09,3.37,1.71.56.31,1.11.64,1.65,1l-.35-.33-25.9,27.1L430.39,204.1l-.36.38A27,27,0,0,1,434,199.19Z" transform="translate(-412.11 -151.68)"/><path class="cls-1" d="M434.36,199.56c6.11-6.4,14.79-9.19,23.88-8.53a40.35,40.35,0,0,1,13.68,3.56c1.12.51,2.23,1.08,3.33,1.69.54.31,1.09.63,1.63,1l-.45-.43-25.61,26.8-20.05-19.15-.3.32A26.35,26.35,0,0,1,434.36,199.56Z" transform="translate(-412.11 -151.68)"/><path class="cls-1" d="M434.74,199.93c6-6.32,14.6-9.07,23.56-8.41A39.47,39.47,0,0,1,471.79,195c1.11.5,2.2,1.06,3.28,1.66.54.31,1.08.62,1.61.95l-.55-.52-25.31,26.49-19.67-18.79-.25.25A26.38,26.38,0,0,1,434.74,199.93Z" transform="translate(-412.11 -151.68)"/><path class="cls-1" d="M435.13,200.29c5.94-6.22,14.39-8.94,23.23-8.29a38.9,38.9,0,0,1,13.3,3.47c1.09.49,2.17,1,3.24,1.64.53.3,1.06.61,1.58.93l-.64-.61-25,26.18-19.3-18.43-.18.19A26,26,0,0,1,435.13,200.29Z" transform="translate(-412.11 -151.68)"/><path class="cls-1" d="M435.51,200.66c5.87-6.14,14.19-8.81,22.91-8.18a38.71,38.71,0,0,1,13.11,3.42c1.08.49,2.14,1,3.19,1.62.52.29,1,.6,1.56.92l-.73-.7-24.73,25.87L431.9,205.54l-.12.12A25.92,25.92,0,0,1,435.51,200.66Z" transform="translate(-412.11 -151.68)"/><path class="cls-1" d="M435.9,201c5.78-6.05,14-8.69,22.57-8.06a37.88,37.88,0,0,1,12.93,3.37c1.06.48,2.11,1,3.14,1.59.52.29,1,.59,1.55.91l-.84-.8-24.43,25.57L432.28,205.9l-.06.06A25.22,25.22,0,0,1,435.9,201Z" transform="translate(-412.11 -151.68)"/><path class="cls-1" d="M436.28,201.4c5.7-6,13.78-8.56,22.25-8a37.4,37.4,0,0,1,12.74,3.32c1,.48,2.08,1,3.1,1.57.51.29,1,.59,1.52.9l-.93-.89-24.14,25.26L433,206.54l-1,1c.22-.45.46-.89.71-1.32A24.86,24.86,0,0,1,436.28,201.4Z" transform="translate(-412.11 -151.68)"/><path class="cls-1" d="M436.67,201.76c5.61-5.87,13.58-8.43,21.92-7.82a36.81,36.81,0,0,1,12.55,3.27c1,.47,2.05,1,3.05,1.55.51.28,1,.57,1.5.88l-1-1-23.84,25-17.5-16.72-.92,1c.22-.44.45-.88.69-1.31A24.51,24.51,0,0,1,436.67,201.76Z" transform="translate(-412.11 -151.68)"/><path class="cls-1" d="M437.05,202.13c5.53-5.78,13.38-8.31,21.6-7.71A36.39,36.39,0,0,1,471,197.64c1,.47,2,1,3,1.53.49.28,1,.57,1.47.87L474.37,199l-23.55,24.64-17.13-16.36-.84.88c.21-.43.44-.86.68-1.28A24.56,24.56,0,0,1,437.05,202.13Z" transform="translate(-412.11 -151.68)"/><path class="cls-1" d="M437.44,202.5c5.44-5.7,13.17-8.18,21.27-7.59a35.8,35.8,0,0,1,12.17,3.17c1,.45,2,.95,3,1.5l0,0-23,24.06-16.75-16-.77.81c.21-.43.43-.85.67-1.27A23.79,23.79,0,0,1,437.44,202.5Z" transform="translate(-412.11 -151.68)"/><path class="cls-1" d="M437.82,202.87c5.36-5.61,13-8.06,20.94-7.48a35.16,35.16,0,0,1,12,3.13c1,.44,2,.94,2.92,1.47l-.15-.14-22.7,23.76L434.44,208l-.7.73c.21-.42.44-.84.67-1.25A23,23,0,0,1,437.82,202.87Z" transform="translate(-412.11 -151.68)"/><path class="cls-1" d="M438.21,203.24c5.27-5.53,12.76-7.94,20.61-7.36a34.5,34.5,0,0,1,11.8,3.07c1,.44,1.93.93,2.87,1.46l-.26-.25-22.41,23.45-16-15.29-.62.64c.21-.41.43-.82.66-1.22A23,23,0,0,1,438.21,203.24Z" transform="translate(-412.11 -151.68)"/><path class="cls-1" d="M438.59,203.6c5.19-5.43,12.57-7.8,20.29-7.24a34.09,34.09,0,0,1,11.61,3c.95.43,1.9.91,2.83,1.43l-.38-.36-22.12,23.15-15.64-14.94-.54.57c.2-.41.42-.81.65-1.21A22.58,22.58,0,0,1,438.59,203.6Z" transform="translate(-412.11 -151.68)"/><path class="cls-1" d="M439,204c5.11-5.35,12.36-7.68,20-7.13a33.73,33.73,0,0,1,11.42,3c.94.43,1.87.9,2.78,1.41l-.49-.47-21.83,22.85-14.95-14.28-1.34,1.41a23.44,23.44,0,0,1,1.19-2.41A22.74,22.74,0,0,1,439,204Z" transform="translate(-412.11 -151.68)"/><path class="cls-1" d="M439.36,204.34c5-5.26,12.16-7.56,19.63-7a32.85,32.85,0,0,1,11.24,2.93c.92.42,1.84.88,2.74,1.38l-.61-.57-21.54,22.54-14.58-13.93L435,211a20.06,20.06,0,0,1,1.17-2.37A21.68,21.68,0,0,1,439.36,204.34Z" transform="translate(-412.11 -151.68)"/><path class="cls-1" d="M439.75,204.71c4.94-5.18,11.95-7.43,19.3-6.9a32.72,32.72,0,0,1,11.05,2.88c.91.42,1.81.87,2.69,1.37l-.72-.69-21.25,22.24L436.61,210l-1.17,1.22a23,23,0,0,1,1.16-2.33A21.21,21.21,0,0,1,439.75,204.71Z" transform="translate(-412.11 -151.68)"/><path class="cls-1" d="M440.13,205.07c4.86-5.08,11.76-7.3,19-6.77A31.83,31.83,0,0,1,470,201.13c.89.4,1.78.85,2.65,1.34l-.84-.8-21,21.94L437,210.38l-1.08,1.13a21.23,21.23,0,0,1,1.14-2.29A21.94,21.94,0,0,1,440.13,205.07Z" transform="translate(-412.11 -151.68)"/><path class="cls-1" d="M440.52,205.44c4.77-5,11.55-7.17,18.65-6.66a31.15,31.15,0,0,1,10.67,2.79c.88.39,1.75.83,2.6,1.31l-.95-.9-20.67,21.63-13.48-12.87-1,1a21,21,0,0,1,4.16-6.33Z" transform="translate(-412.11 -151.68)"/><path class="cls-1" d="M440.9,205.81c4.69-4.91,11.35-7.05,18.32-6.54A30.76,30.76,0,0,1,469.71,202c.86.39,1.72.82,2.56,1.29l-1.07-1-20.38,21.33-13.11-12.52-.89.93a20.59,20.59,0,0,1,1.09-2.21A20.85,20.85,0,0,1,440.9,205.81Z" transform="translate(-412.11 -151.68)"/><path class="cls-1" d="M441.28,206.18c4.61-4.83,11.15-6.93,18-6.43a30.24,30.24,0,0,1,10.31,2.69c.84.38,1.68.8,2.5,1.27l-1.18-1.13-20.09,21-12.74-12.17-.8.84a19.85,19.85,0,0,1,1.07-2.17A20.19,20.19,0,0,1,441.28,206.18Z" transform="translate(-412.11 -151.68)"/><path class="cls-1" d="M441.67,206.54c4.52-4.73,10.94-6.79,17.67-6.3a29.63,29.63,0,0,1,10.12,2.63c.82.38,1.65.8,2.46,1.25l-1.3-1.23-19.8,20.72-12.37-11.82-.72.75a21.27,21.27,0,0,1,1.06-2.14A20.09,20.09,0,0,1,441.67,206.54Z" transform="translate(-412.11 -151.68)"/><path class="cls-1" d="M442.05,206.91c4.44-4.64,10.75-6.67,17.35-6.19a29.23,29.23,0,0,1,9.93,2.59c.81.37,1.61.78,2.41,1.22l-1.41-1.34-19.51,20.42-12-11.47-.62.65a21.39,21.39,0,0,1,1-2.09A19,19,0,0,1,442.05,206.91Z" transform="translate(-412.11 -151.68)"/><path class="cls-1" d="M442.44,207.28c4.36-4.56,10.54-6.55,17-6.08a28.86,28.86,0,0,1,9.75,2.54l1.19.58-.59-.57-19,19.86-11.64-11.12-.53.56a19.56,19.56,0,0,1,1-2.05A19,19,0,0,1,442.44,207.28Z" transform="translate(-412.11 -151.68)"/><path class="cls-1" d="M442.82,207.65c4.28-4.47,10.34-6.42,16.69-6a28.15,28.15,0,0,1,9.56,2.49c.39.18.78.36,1.16.56l-.72-.69-18.69,19.56-11.27-10.77-.44.47a17.23,17.23,0,0,1,1-2A18.92,18.92,0,0,1,442.82,207.65Z" transform="translate(-412.11 -151.68)"/><path class="cls-1" d="M443.21,208c4.19-4.39,10.13-6.3,16.36-5.85a27.58,27.58,0,0,1,9.37,2.45c.38.17.76.35,1.14.55l-.85-.82-18.41,19.26-10.9-10.42-.36.37a21.24,21.24,0,0,1,1-2A18,18,0,0,1,443.21,208Z" transform="translate(-412.11 -151.68)"/><path class="cls-1" d="M443.59,208.38a19.79,19.79,0,0,1,16-5.72,26.91,26.91,0,0,1,9.18,2.39l-.13-.12-17.86,18.68-10.54-10.07-.26.28a18.39,18.39,0,0,1,1-1.94A18.64,18.64,0,0,1,443.59,208.38Z" transform="translate(-412.11 -151.68)"/><path class="cls-1" d="M444,208.75c4-4.21,9.73-6,15.71-5.61a26.57,26.57,0,0,1,9,2.35l-.28-.27-17.58,18.39-10.17-9.71-.17.18a18.63,18.63,0,0,1,.94-1.9A17.21,17.21,0,0,1,444,208.75Z" transform="translate(-412.11 -151.68)"/><path class="cls-1" d="M444.36,209.12a19,19,0,0,1,15.38-5.49,25.89,25.89,0,0,1,8.81,2.29l-.43-.41-17.3,18.1-9.8-9.36-.08.08a16.76,16.76,0,0,1,.92-1.85A17.15,17.15,0,0,1,444.36,209.12Z" transform="translate(-412.11 -151.68)"/><path class="cls-1" d="M444.75,209.49a18.52,18.52,0,0,1,15.05-5.38,25.32,25.32,0,0,1,8.62,2.25l-.58-.56-17,17.81L442,215.17l-1.27,1.33A17,17,0,0,1,444.75,209.49Z" transform="translate(-412.11 -151.68)"/><path class="cls-1" d="M445.13,209.85a18.17,18.17,0,0,1,14.73-5.25,24.82,24.82,0,0,1,8.43,2.19l-.73-.69-16.74,17.51-8.48-8.1-1.16,1.21A16.91,16.91,0,0,1,445.13,209.85Z" transform="translate(-412.11 -151.68)"/><path class="cls-1" d="M445.52,210.22a17.74,17.74,0,0,1,14.4-5.14,24.19,24.19,0,0,1,8.24,2.15l-.88-.84-16.46,17.22-8.13-7.77-1,1.09A16.46,16.46,0,0,1,445.52,210.22Z" transform="translate(-412.11 -151.68)"/><path class="cls-1" d="M445.9,210.59a17.35,17.35,0,0,1,14.07-5,23.57,23.57,0,0,1,8.06,2.09l-1-1-16.18,16.93-7.77-7.43-.92,1A15.93,15.93,0,0,1,445.9,210.59Z" transform="translate(-412.11 -151.68)"/><path class="cls-1" d="M446.29,211A16.92,16.92,0,0,1,460,206.05a23.17,23.17,0,0,1,7.87,2L466.72,207l-15.9,16.64-7.42-7.09-.8.84A15.65,15.65,0,0,1,446.29,211Z" transform="translate(-412.11 -151.68)"/><path class="cls-1" d="M446.67,211.32a16.58,16.58,0,0,1,13.42-4.79,22.6,22.6,0,0,1,7.68,2l-1.33-1.27-15.62,16.34-7.07-6.75-.68.72A15.42,15.42,0,0,1,446.67,211.32Z" transform="translate(-412.11 -151.68)"/><path class="cls-1" d="M447.06,211.69A16.13,16.13,0,0,1,460.15,207a21.68,21.68,0,0,1,3.76.62c.62.17,1.25.36,1.87.58l-.13-.13-14.83,15.52-6.71-6.41-.57.59A15,15,0,0,1,447.06,211.69Z" transform="translate(-412.11 -151.68)"/><path class="cls-1" d="M447.44,212.06a15.76,15.76,0,0,1,12.76-4.56,21.3,21.3,0,0,1,3.67.61q.92.24,1.83.57l-.32-.31-14.56,15.24-6.36-6.07L444,218A14.49,14.49,0,0,1,447.44,212.06Z" transform="translate(-412.11 -151.68)"/><path class="cls-1" d="M447.83,212.43A15.31,15.31,0,0,1,460.26,208a19.41,19.41,0,0,1,3.57.59c.6.16,1.19.34,1.79.55l-.5-.48-14.3,15-6-5.73-.33.34A14.15,14.15,0,0,1,447.83,212.43Z" transform="translate(-412.11 -151.68)"/><path class="cls-1" d="M448.21,212.79a15,15,0,0,1,12.11-4.32,20.23,20.23,0,0,1,3.48.58c.58.15,1.16.33,1.73.53l-.68-.65-14,14.68-5.65-5.39-.21.22A13.81,13.81,0,0,1,448.21,212.79Z" transform="translate(-412.11 -151.68)"/><path class="cls-1" d="M448.6,213.16a14.52,14.52,0,0,1,11.78-4.2,19.07,19.07,0,0,1,3.38.56c.57.15,1.13.32,1.69.52l-.87-.83-13.76,14.4-5.29-5.06-.1.1A13.46,13.46,0,0,1,448.6,213.16Z" transform="translate(-412.11 -151.68)"/><path class="cls-1" d="M449,213.53a14.11,14.11,0,0,1,11.45-4.09,17.94,17.94,0,0,1,3.29.55c.55.14,1.1.31,1.65.5l-1.05-1-13.5,14.12-4.37-4.17-.9.94a12.76,12.76,0,0,1,.36-1.51A13.11,13.11,0,0,1,449,213.53Z" transform="translate(-412.11 -151.68)"/><path class="cls-1" d="M449.37,213.9a13.7,13.7,0,0,1,11.12-4,17.1,17.1,0,0,1,3.2.53l-.16-.15-12.71,13.3-4-3.85-.76.79a14.3,14.3,0,0,1,.35-1.47A12.6,12.6,0,0,1,449.37,213.9Z" transform="translate(-412.11 -151.68)"/><path class="cls-1" d="M449.75,214.27a13.3,13.3,0,0,1,10.8-3.86,17.61,17.61,0,0,1,3.1.52l-.37-.36-12.46,13-3.69-3.53-.62.64a13.35,13.35,0,0,1,.34-1.42A12.32,12.32,0,0,1,449.75,214.27Z" transform="translate(-412.11 -151.68)"/><path class="cls-1" d="M450.14,214.63a12.92,12.92,0,0,1,10.47-3.74,16.66,16.66,0,0,1,3,.51l-.58-.56-12.21,12.77L448.08,221l-1.27,1.33a13.93,13.93,0,0,1,.52-2.81A11.89,11.89,0,0,1,450.14,214.63Z" transform="translate(-412.11 -151.68)"/><path class="cls-1" d="M450.52,215a12.5,12.5,0,0,1,10.14-3.62,16.47,16.47,0,0,1,2.92.48l-.8-.76-12,12.51-2.42-2.31-1.1,1.15a13.05,13.05,0,0,1,.5-2.72A11.5,11.5,0,0,1,450.52,215Z" transform="translate(-412.11 -151.68)"/><path class="cls-1" d="M450.91,215.37a12.11,12.11,0,0,1,9.81-3.51,16.28,16.28,0,0,1,2.82.47l-1-1-11.71,12.25-2.1-2-.93,1a12.81,12.81,0,0,1,.48-2.64A11.22,11.22,0,0,1,450.91,215.37Z" transform="translate(-412.11 -151.68)"/><path class="cls-1" d="M451.29,215.74a11.69,11.69,0,0,1,9.49-3.39,15.39,15.39,0,0,1,2.73.45l-1.23-1.17-11.46,12-1.78-1.7-.76.8a12.61,12.61,0,0,1,.46-2.55A10.89,10.89,0,0,1,451.29,215.74Z" transform="translate(-412.11 -151.68)"/><path class="cls-1" d="M451.68,216.1a11.31,11.31,0,0,1,9.16-3.27,15.21,15.21,0,0,1,2.63.44L462,211.89l-11.2,11.72-1.46-1.4-.59.62a11.35,11.35,0,0,1,.45-2.46A10.4,10.4,0,0,1,451.68,216.1Z" transform="translate(-412.11 -151.68)"/><path class="cls-1" d="M452.06,216.47a10.87,10.87,0,0,1,8.84-3.15l-.13-.12-9.95,10.41-1.14-1.09-.42.44a11,11,0,0,1,.43-2.37A10.06,10.06,0,0,1,452.06,216.47Z" transform="translate(-412.11 -151.68)"/><path class="cls-1" d="M452.45,216.84a10.48,10.48,0,0,1,8.5-3l-.39-.38-9.74,10.19-.82-.79-.26.27a10.89,10.89,0,0,1,.42-2.29A9.72,9.72,0,0,1,452.45,216.84Z" transform="translate(-412.11 -151.68)"/><path class="cls-1" d="M452.83,217.21a10.08,10.08,0,0,1,8.18-2.92l-.67-.64-9.52,10-.53,1.9A10.08,10.08,0,0,1,452.83,217.21Z" transform="translate(-412.11 -151.68)"/><path class="cls-1" d="M453.21,217.57a9.71,9.71,0,0,1,7.86-2.8l-.94-.9-9.31,9.74-.05,1.94A9.71,9.71,0,0,1,453.21,217.57Z" transform="translate(-412.11 -151.68)"/><path class="cls-1" d="M453.6,217.94a9.3,9.3,0,0,1,7.53-2.68l-1.22-1.16-9.09,9.51.44,2A9.27,9.27,0,0,1,453.6,217.94Z" transform="translate(-412.11 -151.68)"/><path class="cls-1" d="M454,218.31a8.23,8.23,0,0,1,3.27-2.08,8.7,8.7,0,0,1,1.91-.44l-.45-.43-7.46,7.81.45.43a9.62,9.62,0,0,1,.35-1.94A8.2,8.2,0,0,1,454,218.31Z" transform="translate(-412.11 -151.68)"/><path class="cls-1" d="M454.37,218.68a7.87,7.87,0,0,1,3.11-2l0,0-5,5.19,0,0A7.89,7.89,0,0,1,454.37,218.68Z" transform="translate(-412.11 -151.68)"/><path class="cls-1" d="M454.75,219.05a7.53,7.53,0,0,1,3-1.9l-.38-.36-4.72,4.94.38.36A7.39,7.39,0,0,1,454.75,219.05Z" transform="translate(-412.11 -151.68)"/><path class="cls-1" d="M455,219.26l5.76-6Z" transform="translate(-412.11 -151.68)"/><path class="cls-1" d="M455,219.26l5.46-5.71Z" transform="translate(-412.11 -151.68)"/><path class="cls-1" d="M455,219.26l5.16-5.4Z" transform="translate(-412.11 -151.68)"/><path class="cls-1" d="M455,219.26l4.85-5.08Z" transform="translate(-412.11 -151.68)"/><path class="cls-1" d="M455,219.26l4.55-4.76Z" transform="translate(-412.11 -151.68)"/><path class="cls-1" d="M455,219.26l4.25-4.44Z" transform="translate(-412.11 -151.68)"/><path class="cls-1" d="M455,219.26l3.94-4.13Z" transform="translate(-412.11 -151.68)"/><path class="cls-1" d="M455,219.26l3.64-3.81Z" transform="translate(-412.11 -151.68)"/><path class="cls-1" d="M455,219.26l3.34-3.49Z" transform="translate(-412.11 -151.68)"/><path class="cls-1" d="M455,219.26l3-3.17Z" transform="translate(-412.11 -151.68)"/><path class="cls-1" d="M455,219.26l2.73-2.86Z" transform="translate(-412.11 -151.68)"/><path class="cls-1" d="M455,219.26l2.43-2.54Z" transform="translate(-412.11 -151.68)"/><path class="cls-1" d="M455,219.26,457.1,217Z" transform="translate(-412.11 -151.68)"/><path class="cls-1" d="M455,219.26l1.82-1.9Z" transform="translate(-412.11 -151.68)"/><path class="cls-1" d="M455,219.26l1.52-1.59Z" transform="translate(-412.11 -151.68)"/><path class="cls-1" d="M455,219.26l1.21-1.27Z" transform="translate(-412.11 -151.68)"/><path class="cls-1" d="M455,219.26l.91-.95Z" transform="translate(-412.11 -151.68)"/><path class="cls-1" d="M455,219.26l.61-.63Z" transform="translate(-412.11 -151.68)"/><path class="cls-1" d="M455,219.26l.3-.32Z" transform="translate(-412.11 -151.68)"/></g><polygon class="cls-3" points="69.29 39.51 9.94 20.43 3.97 0 69.29 39.51"/><polygon class="cls-4" points="69.29 39.51 12.86 30.39 18.83 50.81 69.29 39.51"/><polygon class="cls-5" points="12.86 30.39 69.29 39.51 9.94 20.43 1.39 35.89 12.86 30.39"/><polygon class="cls-6" points="9.68 19.52 69.29 39.51 9.94 20.43 9.68 19.52"/><polygon class="cls-7" points="12.86 30.39 69.29 39.51 13.1 31.21 12.86 30.39"/></svg>