<svg id="Layer_1" data-name="Layer 1" xmlns="http://www.w3.org/2000/svg" viewBox="0 0 262.26 64.93"><defs><style>.cls-1{fill:#344257;}</style></defs><path class="cls-1" d="M313.7,208.73A5.15,5.15,0,0,1,312,204.8a5.22,5.22,0,0,1,1.71-4,6.22,6.22,0,0,1,4.41-1.59,6.14,6.14,0,0,1,4.35,1.59,5.22,5.22,0,0,1,1.71,4,5.15,5.15,0,0,1-1.71,3.93,6.14,6.14,0,0,1-4.35,1.59A6.22,6.22,0,0,1,313.7,208.73Zm9.51,5.07v33.48H313V213.8Z" transform="translate(-200.33 -199.22)"/><path class="cls-1" d="M208.49,246.2a13.5,13.5,0,0,1-5.85-4.44,12.13,12.13,0,0,1-2.31-7.08h10.92a5.3,5.3,0,0,0,1.62,3.57,5.21,5.21,0,0,0,3.6,1.23,5.63,5.63,0,0,0,3.6-1,3.51,3.51,0,0,0,1.32-2.91,3.44,3.44,0,0,0-1-2.58,8.47,8.47,0,0,0-2.58-1.68,41.5,41.5,0,0,0-4.35-1.5,47.36,47.36,0,0,1-6.66-2.52,12.31,12.31,0,0,1-4.44-3.72,10.37,10.37,0,0,1-1.86-6.42,11,11,0,0,1,4.26-9.21q4.26-3.33,11.1-3.33T227,207.89a11.92,11.92,0,0,1,4.56,9.27h-11.1A4.34,4.34,0,0,0,219,214a5.28,5.28,0,0,0-3.54-1.17,4.41,4.41,0,0,0-3,1,3.57,3.57,0,0,0-1.14,2.85,3.53,3.53,0,0,0,1.92,3.18,31.47,31.47,0,0,0,6,2.46,55.49,55.49,0,0,1,6.63,2.64,12.62,12.62,0,0,1,4.41,3.66,9.8,9.8,0,0,1,1.86,6.18,12.13,12.13,0,0,1-1.83,6.54A12.82,12.82,0,0,1,225,246a18.18,18.18,0,0,1-8.22,1.74A21.67,21.67,0,0,1,208.49,246.2Z" transform="translate(-200.33 -199.22)"/><path class="cls-1" d="M244.82,245.66a15.38,15.38,0,0,1-6.18-6,19.43,19.43,0,0,1,0-18.21,15.47,15.47,0,0,1,6.24-6,19.82,19.82,0,0,1,17.76,0,15.47,15.47,0,0,1,6.24,6,17.78,17.78,0,0,1,2.28,9.09,17.6,17.6,0,0,1-2.31,9.09,15.62,15.62,0,0,1-6.3,6,18.83,18.83,0,0,1-8.91,2.1A18.48,18.48,0,0,1,244.82,245.66Zm13.86-8.94a8.58,8.58,0,0,0,2.07-6.18,8.74,8.74,0,0,0-2-6.18,6.82,6.82,0,0,0-9.93,0q-2,2.13-2,6.21a8.91,8.91,0,0,0,1.95,6.18,6.31,6.31,0,0,0,4.89,2.16A6.68,6.68,0,0,0,258.68,236.72Z" transform="translate(-200.33 -199.22)"/><path class="cls-1" d="M276.74,221.42a14.79,14.79,0,0,1,5.94-6,17.79,17.79,0,0,1,8.73-2.1,16.6,16.6,0,0,1,10.53,3.3,15.57,15.57,0,0,1,5.55,9.3H296.57a5.26,5.26,0,0,0-5.34-3.84,5.38,5.38,0,0,0-4.5,2.19,12.54,12.54,0,0,0,0,12.54,5.38,5.38,0,0,0,4.5,2.19,5.26,5.26,0,0,0,5.34-3.84h10.92a15.72,15.72,0,0,1-5.58,9.24,16.43,16.43,0,0,1-10.5,3.36,17.79,17.79,0,0,1-8.73-2.1,14.79,14.79,0,0,1-5.94-6,20.59,20.59,0,0,1,0-18.24Z" transform="translate(-200.33 -199.22)"/><path class="cls-1" d="M330.56,221.42a14.55,14.55,0,0,1,5.31-6,13.86,13.86,0,0,1,7.5-2.1,12.88,12.88,0,0,1,6.21,1.44,10.61,10.61,0,0,1,4.11,3.78V213.8H364v33.48H353.69v-4.74a11.08,11.08,0,0,1-4.17,3.78,12.88,12.88,0,0,1-6.21,1.44,13.61,13.61,0,0,1-7.44-2.13,14.72,14.72,0,0,1-5.31-6.06,22.09,22.09,0,0,1,0-18.15Zm21,3.06a7.21,7.21,0,0,0-10.38,0,8.28,8.28,0,0,0-2.13,6,8.5,8.5,0,0,0,2.13,6.09,7.14,7.14,0,0,0,10.38,0,9.69,9.69,0,0,0,0-12.12Z" transform="translate(-200.33 -199.22)"/><path class="cls-1" d="M381.65,202.88v44.4H371.39v-44.4Z" transform="translate(-200.33 -199.22)"/><path class="cls-1" d="M389.84,208.73a5.15,5.15,0,0,1-1.71-3.93,5.22,5.22,0,0,1,1.71-4,6.22,6.22,0,0,1,4.41-1.59,6.14,6.14,0,0,1,4.35,1.59,5.22,5.22,0,0,1,1.71,4,5.15,5.15,0,0,1-1.71,3.93,6.14,6.14,0,0,1-4.35,1.59A6.22,6.22,0,0,1,389.84,208.73Zm9.51,5.07v33.48H389.09V213.8Z" transform="translate(-200.33 -199.22)"/><path class="cls-1" d="M423.59,222.32h-5.52v25H407.81v-25h-3.72V213.8h3.72v-1q0-6.18,3.54-9.39t10.38-3.21q1.14,0,1.68.06V209q-2.94-.18-4.14.84t-1.2,3.66v.3h5.52Z" transform="translate(-200.33 -199.22)"/><path class="cls-1" d="M462.58,213.8l-20.87,50.35h-11l7.55-18L424.61,213.8h11.46l7.73,20.94,7.69-20.94Z" transform="translate(-200.33 -199.22)"/></svg>